<?xml version="1.0" encoding="utf-8"?><svg viewBox="0 0 882.667 512" xmlns="http://www.w3.org/2000/svg" xmlns:xlink="http://www.w3.org/1999/xlink"><style>:root>svg{display:none}:root>svg:target{display:block}</style><svg viewBox="0 0 511.998 511.998" id="3d" xmlns="http://www.w3.org/2000/svg"><path d="M466.011 126.861c-2.523-4.136-6.183-7.078-10.381-8.693L266.97 3.09a21.102 21.102 0 00-21.99 0L56.298 118.167c-4.197 1.616-7.917 4.557-10.44 8.693-2.054 3.368-2.774 7.083-2.812 10.761-.007.221.235.441.235.664V373.71c0 7.368 3.584 14.204 9.874 18.04l191.97 117.156c3.378 2.06 7.127 3.091 10.939 3.091a21 21 0 0010.971-3.091L458.861 391.75c6.29-3.836 9.857-10.673 9.857-18.04V138.286c0-.223.241-.442.234-.664-.038-3.678-.887-7.393-2.941-10.761zM234.868 58.768v158.614l-130.036-79.308 130.036-79.306zm0 394.462L85.542 361.848V175.502l149.326 91.382V453.23zM277.13 58.768l130.036 79.306-130.036 79.307V58.768zm149.326 303.08L277.13 453.23V266.884l149.326-91.382v186.346z"/><path d="M153.725 318.456c-6.153-9.917-19.177-12.972-29.096-6.82l-9.578 5.941c-9.917 6.151-12.97 19.177-6.82 29.095 4.001 6.449 10.908 9.996 17.978 9.996 3.801 0 7.649-1.026 11.118-3.177l9.578-5.941c9.918-6.15 12.97-19.177 6.82-29.094zm242.293-1.762l-9.588-5.924c-9.93-6.135-22.95-3.057-29.083 6.87-6.134 9.929-3.058 22.95 6.87 29.083l9.588 5.924a21.032 21.032 0 0011.085 3.157c7.082 0 14.001-3.56 17.997-10.027 6.136-9.929 3.06-22.95-6.869-29.083zm-180.041-36.849c-6.149-9.916-19.176-12.973-29.095-6.821l-9.578 5.939c-9.919 6.151-12.972 19.177-6.823 29.095 4.001 6.451 10.908 9.996 17.98 9.996 3.799 0 7.649-1.026 11.116-3.175l9.578-5.939c9.92-6.149 12.974-19.176 6.822-29.095zm117.724-1.655l-9.588-5.924c-9.929-6.134-22.948-3.058-29.085 6.869-6.134 9.929-3.058 22.95 6.869 29.085l9.588 5.924a21.034 21.034 0 0011.087 3.157c7.082 0 14-3.56 17.997-10.027 6.134-9.928 3.059-22.95-6.868-29.084z"/></svg><svg viewBox="0 0 310 310" id="facebook" xmlns="http://www.w3.org/2000/svg"><path d="M81.703 165.106h33.981V305a5 5 0 005 5H178.3a5 5 0 005-5V165.765h39.064a5 5 0 004.967-4.429l5.933-51.502a5 5 0 00-4.966-5.572h-44.996V71.978c0-9.732 5.24-14.667 15.576-14.667h29.42a5 5 0 005-5V5.037a5 5 0 00-5-5h-40.545A39.746 39.746 0 00185.896 0c-7.035 0-31.488 1.381-50.804 19.151-21.402 19.692-18.427 43.27-17.716 47.358v37.752H81.703a5 5 0 00-5 5v50.844a5 5 0 005 5.001z"/></svg><svg viewBox="0 0 24 24" id="inst" xmlns="http://www.w3.org/2000/svg"><path fill-rule="evenodd" clip-rule="evenodd" d="M12 7a5 5 0 100 10 5 5 0 000-10zm-3 5a3 3 0 106 0 3 3 0 00-6 0z"/><path d="M18 5a1 1 0 100 2 1 1 0 000-2z"/><path fill-rule="evenodd" clip-rule="evenodd" d="M5 1a4 4 0 00-4 4v14a4 4 0 004 4h14a4 4 0 004-4V5a4 4 0 00-4-4H5zm14 2H5a2 2 0 00-2 2v14a2 2 0 002 2h14a2 2 0 002-2V5a2 2 0 00-2-2z"/></svg><svg viewBox="0 0 57.949 57.949" id="internet" xmlns="http://www.w3.org/2000/svg"><path d="M29.975 27.985h11.972a34.935 34.935 0 00-2.664-12.477 36.873 36.873 0 01-9.308 1.44v11.037zm10.409-14.928a34.821 34.821 0 008.328-4.169l.653-.5C44.588 3.658 38.18.58 31.071.069l-.518.421c4.214 3.489 7.546 7.778 9.831 12.567zM29.975 2.628v12.32a34.975 34.975 0 008.473-1.283 34.976 34.976 0 00-8.473-11.037zm11.556 39.574a36.863 36.863 0 018.885 4.639l.868.65a28.858 28.858 0 006.665-17.505H43.947a36.93 36.93 0 01-2.416 12.216zM9.237 8.888a34.877 34.877 0 008.328 4.169C19.85 8.269 23.182 3.98 27.397.49l-.518-.421c-7.125.512-13.547 3.603-18.328 8.35l.686.469zm18.738-6.26a34.98 34.98 0 00-8.473 11.036 34.926 34.926 0 008.473 1.283V2.628zM14.003 29.985H0A28.866 28.866 0 006.665 47.49l.85-.635a36.994 36.994 0 018.906-4.652 36.889 36.889 0 01-2.418-12.218zm2.749-15.095a36.864 36.864 0 01-8.644-4.351l-.938-.642A28.87 28.87 0 000 27.985h14.003a36.926 36.926 0 012.749-13.095zm-.749 13.095h11.972V16.948a36.94 36.94 0 01-9.309-1.438 34.897 34.897 0 00-2.663 12.475zm11.294 29.406A37.098 37.098 0 0117.186 44.05a34.928 34.928 0 00-8.492 4.42l-.689.515c4.774 5.003 11.31 8.304 18.605 8.896l.687-.49zm.678-17.368V29.985H16.003a34.912 34.912 0 002.313 11.58 36.828 36.828 0 019.659-1.542zm21.261 8.433a34.782 34.782 0 00-8.469-4.406 36.969 36.969 0 01-10.113 13.344l.685.487c7.295-.592 13.832-3.892 18.606-8.895l-.709-.53zm.649-37.949a37.079 37.079 0 01-8.689 4.38 36.944 36.944 0 012.751 13.098H57.95a28.87 28.87 0 00-7.209-18.133l-.856.655zm-21.91 44.835V42.023a34.844 34.844 0 00-8.882 1.4 34.94 34.94 0 008.882 11.919zm13.972-25.357H29.975v10.038a36.85 36.85 0 019.662 1.542 35.025 35.025 0 002.31-11.58zM38.86 43.423a34.904 34.904 0 00-8.885-1.4v13.323a34.83 34.83 0 008.885-11.923z"/></svg><svg viewBox="0 0 467.29 467.29" id="iron-man" xmlns="http://www.w3.org/2000/svg"><path d="M437.38 231.01c.055-.195.113-.389.156-.584.022-.103.035-.208.054-.312.044-.237.086-.474.112-.711.009-.084.011-.17.018-.254.022-.259.039-.517.041-.774l.003-.06c0-58.401-15.462-110.298-44.713-150.081-26.075-35.462-63.015-60.782-104.014-71.297C271.085 2.334 252.45 0 233.645 0c-18.804 0-37.439 2.334-55.389 6.937h-.003c-41 10.515-77.939 35.835-104.014 71.297-29.252 39.783-44.713 91.68-44.713 150.081 0 .021.003.041.003.062.002.254.019.508.04.763.007.088.009.176.018.264.026.233.068.467.111.7.019.107.032.216.055.322.042.193.1.385.154.578.039.141.072.283.117.422.006.017.009.034.014.051l76.304 228.974a10.001 10.001 0 009.487 6.838h235.629a10 10 0 009.487-6.838l76.304-228.974c.006-.017.009-.034.014-.051.046-.137.079-.277.117-.416zM276.552 24.539v75.75h-85.814v-75.75C204.73 21.525 219.129 20 233.645 20c14.516 0 28.915 1.525 42.907 4.539zm-105.814 5.573v80.177c0 5.523 4.477 10 10 10h105.814c5.522 0 10-4.477 10-10V30.112c57.758 20.37 119.62 81.112 121.181 193.828l-103.024 94.289a10.008 10.008 0 00-3.221 6.62l-4.084 53.783-14.398 4.799-5.33-14.969a10 10 0 00-9.421-6.645h-89.219a10 10 0 00-9.42 6.645l-5.331 14.969-14.399-4.799-4.084-53.783a9.998 9.998 0 00-3.22-6.62l-103.025-94.29c1.56-112.715 63.423-173.457 121.181-193.827zM165.1 447.289l-3.571-47.029 15.727 5.242c5.162 1.721 10.757-1.004 12.583-6.132l6.251-17.554h75.111l6.251 17.554a10.004 10.004 0 009.42 6.647 9.97 9.97 0 003.163-.516l15.726-5.242-3.571 47.029H165.1zM61.193 261.7l74.967 68.61 4.285 56.424c.003.038.005.077.009.115l4.59 60.44H123.04L61.193 261.7zm283.058 185.589h-22.003l4.589-60.436.009-.123 4.284-56.42 74.966-68.61-61.845 185.589z"/><path d="M202.134 244.17a10.003 10.003 0 0010-10v-35.189h43.023v35.189a10 10 0 0010.73 9.973l78.419-5.742a10 10 0 009.27-9.973v-29.447h10c5.522 0 10-4.477 10-10s-4.478-10-10-10H103.715c-5.523 0-10 4.477-10 10s4.477 10 10 10h10v29.447a10 10 0 009.27 9.973l78.419 5.742c.243.019.487.027.73.027zm131.442-45.189v20.153l-58.419 4.278v-24.431h58.419zm-141.443 24.431l-58.419-4.278v-20.153h58.419v24.431z"/></svg><svg version="1.0" viewBox="0 0 662 189" id="logo" xmlns="http://www.w3.org/2000/svg"><path d="M404.6 8.2c.4.7 4.9 7.1 9.9 14.3 19.2 27 49.6 71.8 49.3 72.4-.3.8-19.8 29.2-26.5 38.6-1.9 2.7-8 11.5-13.6 19.5-5.5 8-12.2 17.5-14.9 21.3L404 181h62.7l13.5-19.3c7.4-10.5 20.8-29.9 29.8-43 9-13 16.6-23.7 16.9-23.7.3 0 7.3 9.8 15.5 21.8 8.2 11.9 21.7 31.5 30 43.4l15.1 21.8h62.6l-4.8-6.8c-2.6-3.7-7.9-11.2-11.8-16.7-12-16.9-43.7-63.3-43.7-64 0-.7 30.7-45.7 43.7-64 3.9-5.5 9.2-13 11.8-16.8l4.8-6.7h-62.6l-11 15.7c-6 8.7-19.4 28.2-29.8 43.3-10.3 15.1-19.2 27.5-19.7 27.5s-10.6-14-22.3-31c-11.7-17.1-25.2-36.4-29.8-43l-8.5-12-31.3-.3c-24.9-.2-31.1 0-30.5 1zM107.4 23.4c-5.5 8-16.7 24.6-25.1 36.9-8.4 12.2-20.4 29.8-26.7 39.2-6.3 9.3-21.2 31.4-33 49L1 180.5l31.2.3c24.1.2 31.5-.1 32.4-1 .7-.7 9.5-13.9 19.6-29.3 30-45.7 33.2-50.4 33.9-49.9.9.5 14.2 19.7 46.7 67.4 3.6 5.2 7.2 10.3 8.1 11.3 2 2.1.7 3.7 16.6-19.8 14.4-21.2 39.6-57.8 40.5-58.9.5-.4 6.3 7.6 13.1 17.9l12.3 18.7 2-2.8c1.2-1.5 6.5-9.3 12-17.3 5.4-8.1 11.6-17.1 13.8-20.3l4-5.6-22.6-33.4C237.2 17.3 234.3 13 232 10.6c-1.7-1.8-1.9-1.6-5.7 4-2.1 3.3-14.6 21.8-27.8 41.3l-23.8 35.4-2.5-2.9c-1.4-1.6-13.5-19.3-26.9-39.4C131.8 28.9 120 11.7 119 10.6c-1.7-1.7-2.1-1.3-11.6 12.8z"/><path d="M337.2 24.2c-5.6 8.4-14.6 21.8-20 29.8-20.7 30.5-31.9 47.1-42.7 63-20.2 29.8-32.1 47.4-37.3 54.9-2.9 4.1-5.2 7.8-5.2 8.3 0 .4 14.2.8 31.5.8H295l3.2-5.2c1.8-2.9 8.5-13.2 14.9-22.8 6.4-9.6 16.9-25.5 23.4-35.3l11.7-17.9 6.4 9.4c3.5 5.1 15.2 22.5 25.9 38.6 10.7 16.2 20 29.2 20.7 29 .6-.2 3.1-3.2 5.5-6.6 6.1-8.7 13.1-18.9 16.6-24.2 1.7-2.5 4.3-6.2 5.9-8.2l2.9-3.7-41.7-62.5C367.4 37.2 348.4 9 348 9c-.3 0-5.2 6.9-10.8 15.2z"/><path d="M312 162.4c-6 9.1-11 17-11 17.6 0 .6 8.1 1 23.4 1h23.4l-11.4-16.9c-6.3-9.4-11.8-17.2-12.4-17.6-.5-.3-5.9 6.9-12 15.9z"/></svg><svg viewBox="0 0 512 512" id="moon" xmlns="http://www.w3.org/2000/svg"><path d="M275.4 500.7c-135 0-244.7-109.8-244.7-244.7 0-134.9 109.8-244.7 244.7-244.7 8.2 0 16.4.4 24.6 1.2 7.2.7 13.5 5.2 16.5 11.7s2.4 14.2-1.6 20.2c-23 33.8-35.2 73.3-35.2 114.2 0 105 78.7 192.2 183.2 202.6 7.2.7 13.5 5.2 16.5 11.7 3.1 6.5 2.4 14.2-1.6 20.2-45.8 67.4-121.4 107.6-202.4 107.6zm-12.5-448C156.4 59.2 71.7 147.9 71.7 256c0 112.3 91.4 203.7 203.7 203.7 56.4 0 109.6-23.4 147.8-63.7-46.2-11.7-88.1-36.8-120.8-72.6-41.1-45.2-63.8-103.6-63.8-164.6.1-37.1 8.4-73.2 24.3-106.1z"/></svg><svg viewBox="0 0 512 512" id="sun" xmlns="http://www.w3.org/2000/svg"><path d="M256 105.5c-83.9 0-152.2 68.3-152.2 152.2 0 83.9 68.3 152.2 152.2 152.2 83.9 0 152.2-68.3 152.2-152.2 0-84-68.3-152.2-152.2-152.2zm0 263.5c-61.4 0-111.4-50-111.4-111.4 0-61.4 50-111.4 111.4-111.4 61.4 0 111.4 50 111.4 111.4 0 61.4-50 111.4-111.4 111.4zm0-294.2c11.3 0 20.4-9.1 20.4-20.4v-23c0-11.3-9.1-20.4-20.4-20.4-11.3 0-20.4 9.1-20.4 20.4v23c0 11.3 9.1 20.4 20.4 20.4zm0 362.4c-11.3 0-20.4 9.1-20.4 20.4v22.9c0 11.3 9.1 20.4 20.4 20.4 11.3 0 20.4-9.1 20.4-20.4v-22.9c0-11.2-9.1-20.4-20.4-20.4zm224.6-201.6h-23c-11.3 0-20.4 9.1-20.4 20.4 0 11.3 9.1 20.4 20.4 20.4h23c11.3 0 20.4-9.1 20.4-20.4 0-11.3-9.1-20.4-20.4-20.4zm-426.2 0h-23c-11.3 0-20.4 9.1-20.4 20.4 0 11.3 9.1 20.4 20.4 20.4h22.9c11.3 0 20.4-9.1 20.4-20.4.1-11.3-9.1-20.4-20.3-20.4zm346-152.8L384.1 99c-8 8-8 20.9 0 28.9s20.9 8 28.9 0l16.2-16.2c8-8 8-20.9 0-28.9s-20.9-8-28.8 0zM99 384.1l-16.2 16.2c-8 8-8 20.9 0 28.9s20.9 8 28.9 0l16.2-16.2c8-8 8-20.9 0-28.9s-20.9-7.9-28.9 0zm314 0c-8-8-20.9-8-28.9 0s-8 20.9 0 28.9l16.2 16.2c8 8 20.9 8 28.9 0s8-20.9 0-28.9L413 384.1zM99 127.9c8 8 20.9 8 28.9 0s8-20.9 0-28.9l-16.2-16.2c-8-8-20.9-8-28.9 0s-8 20.9 0 28.9L99 127.9z"/></svg><svg data-name="Layer 1" viewBox="0 0 24 24" id="vk" xmlns="http://www.w3.org/2000/svg"><path d="M15.073 2H8.937C3.333 2 2 3.333 2 8.927v6.136C2 20.666 3.323 22 8.927 22h6.136C20.666 22 22 20.677 22 15.073V8.937C22 3.333 20.677 2 15.073 2zm3.073 14.27h-1.459c-.552 0-.718-.447-1.708-1.437-.864-.833-1.229-.937-1.448-.937-.302 0-.385.083-.385.5v1.312c0 .355-.115.563-1.042.563a5.692 5.692 0 01-4.448-2.667 11.626 11.626 0 01-2.302-4.833c0-.219.083-.417.5-.417h1.458c.375 0 .51.167.657.552.708 2.084 1.916 3.896 2.406 3.896.188 0 .27-.083.27-.552v-2.146c-.062-.979-.582-1.062-.582-1.416a.36.36 0 01.374-.334h2.292c.313 0 .417.156.417.531v2.896c0 .313.135.417.229.417.188 0 .333-.104.677-.448a11.999 11.999 0 001.792-2.98.628.628 0 01.635-.416h1.459c.437 0 .53.219.437.531a18.205 18.205 0 01-1.958 3.365c-.157.24-.22.365 0 .646.145.219.656.646 1 1.052a6.486 6.486 0 011.229 1.708c.125.406-.084.615-.5.615z"/></svg></svg>